<svg width="36" height="25" viewBox="0 0 36 25" fill="none" xmlns="http://www.w3.org/2000/svg">
<path d="M8.90798 13.5455C5.75054 12.6778 2.25608 9.95995 1.00026 8.63379C1.00026 14.7734 2.43156 18.2411 3.25961 19.2758C7.02519 23.9829 11.1429 21.7972 11.9205 20.0945C13.7486 16.0926 11.141 14.1595 8.90798 13.5455Z" fill="white" stroke="white" stroke-linecap="round" stroke-linejoin="round"/>
<path d="M14.5564 24.1877C14.4013 23.3691 13.6572 21.4862 11.9205 20.5039L14.5564 24.1877Z" fill="white"/>
<path d="M14.5564 24.1877C14.4013 23.3691 13.6572 21.4862 11.9205 20.5039" stroke="white" stroke-linecap="round" stroke-linejoin="round"/>
<path d="M22.9773 8.32237C27.6844 7.02875 32.894 2.97704 34.7661 1C34.7661 10.153 32.6324 15.3226 31.3979 16.8651C25.7842 23.8824 19.6456 20.624 18.4863 18.0855C15.7609 12.1196 19.6484 9.23767 22.9773 8.32237Z" fill="white" stroke="white" stroke-linecap="round" stroke-linejoin="round"/>
<path d="M14.5564 24.1871C14.7877 22.9667 15.897 20.1598 18.486 18.6953L14.5564 24.1871Z" fill="white"/>
<path d="M14.5564 24.1871C14.7877 22.9667 15.897 20.1598 18.486 18.6953" stroke="white" stroke-linecap="round" stroke-linejoin="round"/>
</svg>
