<svg width="24" height="24" viewBox="0 0 24 24" fill="none" xmlns="http://www.w3.org/2000/svg">
<path fill-rule="evenodd" clip-rule="evenodd" d="M2 12C2 6.47715 6.47715 2 12 2C17.5228 2 22 6.47715 22 12C22 17.5228 17.5228 22 12 22C6.47715 22 2 17.5228 2 12ZM9.24526 4.48693C7.04301 5.29465 5.29465 7.04301 4.48693 9.24526C4.75171 9.13137 5.03063 9.02642 5.3199 8.93C6.17233 8.64585 7.16767 8.41838 8.25955 8.25955C8.41839 7.16767 8.64585 6.17234 8.93 5.3199C9.02642 5.03063 9.13137 4.75171 9.24526 4.48693ZM14.7547 4.48693C14.8686 4.75171 14.9736 5.03063 15.07 5.3199C15.3541 6.17233 15.5816 7.16765 15.7404 8.25952C16.8324 8.41836 17.8278 8.64584 18.6803 8.93C18.9695 9.0264 19.2483 9.13131 19.513 9.24517C18.7053 7.04296 16.957 5.29463 14.7547 4.48693ZM13.6825 8.05043C13.5473 7.26396 13.3741 6.55663 13.1726 5.95236C12.9206 5.19625 12.6425 4.65651 12.3823 4.32633C12.3116 4.23658 12.1388 3.99965 12 4.00009C11.8612 3.99965 11.6884 4.23658 11.6177 4.32633C11.3575 4.65651 11.0794 5.19625 10.8274 5.95236C10.6259 6.55663 10.4527 7.26396 10.3175 8.05044C11.4131 7.98397 12.5869 7.98396 13.6825 8.05043ZM15.9496 10.3174C16.7361 10.4526 17.4435 10.6259 18.0478 10.8274C18.8039 11.0794 19.3437 11.3575 19.6739 11.6177C19.7728 11.6956 19.9869 11.8532 20 11.9981C20 12.1585 19.784 12.2955 19.6739 12.3823C19.3437 12.6425 18.8039 12.9206 18.0478 13.1726C17.4435 13.3741 16.7361 13.5474 15.9496 13.6826C16.016 12.5869 16.016 11.4131 15.9496 10.3174ZM13.9282 13.9282C14.0254 12.6458 14.0254 11.3542 13.9282 10.0718C12.6458 9.97456 11.3542 9.97456 10.0718 10.0718C9.97457 11.3542 9.97456 12.6458 10.0718 13.9282C11.3542 14.0254 12.6458 14.0254 13.9282 13.9282ZM15.7405 15.7405C16.8324 15.5816 17.8278 15.3542 18.6803 15.07C18.9695 14.9736 19.2483 14.8687 19.513 14.7548C18.7053 16.957 16.957 18.7053 14.7548 19.513C14.8687 19.2483 14.9736 18.9695 15.07 18.6803C15.3542 17.8278 15.5816 16.8324 15.7405 15.7405ZM12.0019 20C12.1468 19.987 12.3044 19.7728 12.3823 19.6739C12.6425 19.3437 12.9206 18.8039 13.1726 18.0478C13.3741 17.4435 13.5474 16.7361 13.6826 15.9496C12.5869 16.016 11.4131 16.016 10.3174 15.9496C10.4526 16.7361 10.6259 17.4435 10.8274 18.0478C11.0794 18.8039 11.3575 19.3437 11.6177 19.6739C11.7052 19.7849 11.8398 20 12.0019 20ZM9.24517 19.513C7.04296 18.7053 5.29463 16.957 4.48693 14.7547C4.75171 14.8686 5.03063 14.9736 5.3199 15.07C6.17233 15.3541 7.16765 15.5816 8.25952 15.7405C8.41836 16.8324 8.64583 17.8278 8.93 18.6803C9.02639 18.9695 9.13131 19.2483 9.24517 19.513ZM8.05043 13.6825C7.26396 13.5473 6.55663 13.3741 5.95236 13.1726C5.19625 12.9206 4.65651 12.6425 4.32633 12.3823C4.23255 12.3084 3.95762 12.1341 4.00315 11.9847C4.01366 11.9502 4.08682 11.8064 4.32633 11.6177C4.65651 11.3575 5.19625 11.0794 5.95236 10.8274C6.55663 10.6259 7.26396 10.4527 8.05044 10.3175C7.98397 11.4131 7.98396 12.5869 8.05043 13.6825Z" fill="#131513"/>
</svg>
