<svg width="99" height="100" viewBox="0 0 99 100" fill="none" xmlns="http://www.w3.org/2000/svg">
<path d="M37.1732 29.699H24.837C22.6558 29.699 20.5639 30.5655 19.0216 32.1078C17.4793 33.6502 16.6128 35.742 16.6128 37.9232V74.932C16.6128 77.1132 17.4793 79.205 19.0216 80.7474C20.5639 82.2897 22.6558 83.1562 24.837 83.1562H61.8458C64.027 83.1562 66.1188 82.2897 67.6611 80.7474C69.2035 79.205 70.07 77.1132 70.07 74.932V62.5957" stroke="black" stroke-width="8.22418" stroke-linecap="round" stroke-linejoin="round"/>
<path d="M37.1733 62.5957H49.5096L84.4624 27.643C86.0983 26.0071 87.0173 23.7883 87.0173 21.4748C87.0173 19.1613 86.0983 16.9426 84.4624 15.3067C82.8265 13.6708 80.6077 12.7518 78.2942 12.7518C75.9807 12.7518 73.762 13.6708 72.1261 15.3067L37.1733 50.2595V62.5957Z" stroke="black" stroke-width="8.22418" stroke-linecap="round" stroke-linejoin="round"/>
<path d="M65.958 21.4748L78.2943 33.8111" stroke="black" stroke-width="8.22418" stroke-linecap="round" stroke-linejoin="round"/>
</svg>
