<svg width="24" height="24" viewBox="0 0 24 24" fill="none" xmlns="http://www.w3.org/2000/svg">
<path d="M12 2C17.5228 2 22 6.47715 22 12C22 17.5228 17.5228 22 12 22C6.47715 22 2 17.5228 2 12C2 6.47715 6.47715 2 12 2ZM12 4C7.58172 4 4 7.58172 4 12C4 16.4183 7.58172 20 12 20C16.4183 20 20 16.4183 20 12C20 7.58172 16.4183 4 12 4ZM14.8 13.8566C15.1943 13.47 15.8275 13.4762 16.2141 13.8706C16.6007 14.265 16.5944 14.8982 16.2 15.2848C15.1188 16.3447 13.6349 17 12 17C10.3651 17 8.88118 16.3447 7.79996 15.2848C7.40557 14.8982 7.39928 14.265 7.7859 13.8706C8.17252 13.4762 8.80566 13.47 9.20004 13.8566C9.92257 14.5649 10.9095 15 12 15C13.0905 15 14.0774 14.5649 14.8 13.8566ZM8.5 8C9.32843 8 10 8.67157 10 9.5C10 10.3284 9.32843 11 8.5 11C7.67157 11 7 10.3284 7 9.5C7 8.67157 7.67157 8 8.5 8ZM15.5 8C16.3284 8 17 8.67157 17 9.5C17 10.3284 16.3284 11 15.5 11C14.6716 11 14 10.3284 14 9.5C14 8.67157 14.6716 8 15.5 8Z" fill="#AFB3B0"/>
</svg>
