<svg width="24" height="24" viewBox="0 0 24 24" fill="none" xmlns="http://www.w3.org/2000/svg">
<path d="M12 2C14.7614 2 17 4.23858 17 7C17 9.34337 15.3879 11.3102 13.2123 11.852L13 11.9V15H15C15.5523 15 16 15.4477 16 16C16 16.5128 15.614 16.9355 15.1166 16.9933L15 17H13V18H15C15.5523 18 16 18.4477 16 19C16 19.5128 15.614 19.9355 15.1166 19.9933L15 20H13V21C13 21.5523 12.5523 22 12 22C11.4872 22 11.0645 21.614 11.0067 21.1166L11 21V11.9C8.71776 11.4367 7 9.41896 7 7C7 4.23858 9.23858 2 12 2ZM12 4C10.3431 4 9 5.34315 9 7C9 8.65685 10.3431 10 12 10C13.6569 10 15 8.65685 15 7C15 5.34315 13.6569 4 12 4Z" fill="#131513"/>
</svg>
