<svg width="24" height="24" viewBox="0 0 24 24" fill="none" xmlns="http://www.w3.org/2000/svg">
<path d="M12 12C11.4477 12 11 12.4477 11 13V17C11 17.5523 11.4477 18 12 18C12.5523 18 13 17.5523 13 17V13C13 12.4477 12.5523 12 12 12Z" fill="#131513"/>
<path fill-rule="evenodd" clip-rule="evenodd" d="M6 8C6 4.68629 8.68629 2 12 2C15.3137 2 18 4.68629 18 8H19C20.1046 8 21 8.89543 21 10V20C21 21.1046 20.1046 22 19 22H5C3.89543 22 3 21.1046 3 20V10C3 8.89543 3.89543 8 5 8H6ZM12 4C14.2091 4 16 5.79086 16 8H8C8 5.79086 9.79086 4 12 4ZM5 10H19V20H5V10Z" fill="#131513"/>
</svg>
