<svg width="24" height="24" viewBox="0 0 24 24" fill="none" xmlns="http://www.w3.org/2000/svg">
<path fill-rule="evenodd" clip-rule="evenodd" d="M8.17156 15.8285C12.0174 19.6743 15.5802 20.0954 16.6259 20.1339C17.8904 20.1804 19.1802 19.1483 19.7376 18.0906C18.848 17.0465 17.6892 16.2367 16.4195 15.3587C15.6712 16.107 14.7484 17.4973 13.5186 16.9999C12.8203 16.7175 11.0941 15.9226 9.58578 14.4143C8.0774 12.9059 7.28254 11.1797 7.00014 10.4815C6.50232 9.25062 7.89574 8.32614 8.6446 7.57728C7.76705 6.28659 6.97059 5.0982 5.92868 4.25322C4.85726 4.81371 3.81907 6.09372 3.86618 7.37414C3.90466 8.4198 4.32576 11.9827 8.17156 15.8285ZM16.5523 22.1325C15.1114 22.0795 11.0307 21.5161 6.75735 17.2427C2.48396 12.9693 1.92056 8.88864 1.86754 7.44769C1.78674 5.25223 3.46854 3.11904 5.41215 2.28607C5.86821 2.09061 6.4206 2.12638 6.85728 2.44491C8.46491 3.61758 9.57406 5.39533 10.5266 6.78733C10.9324 7.38039 10.8654 8.18492 10.3502 8.70014L8.99378 10.0565C9.30859 10.7518 9.95086 11.9509 11 13C12.0491 14.0492 13.2482 14.6914 13.9435 15.0063L15.2992 13.6505C15.8149 13.1349 16.6229 13.0669 17.2173 13.4787C18.6373 14.4625 20.305 15.556 21.521 17.1133C21.8625 17.5507 21.9133 18.1227 21.7096 18.5981C20.8728 20.5507 18.7552 22.2136 16.5523 22.1325Z" fill="#131513"/>
</svg>
