<svg width="24" height="24" viewBox="0 0 24 24" fill="none" xmlns="http://www.w3.org/2000/svg">
<path fill-rule="evenodd" clip-rule="evenodd" d="M2 7C2 5.89543 2.89543 5 4 5H20C21.1046 5 22 5.89543 22 7V17C22 18.1046 21.1046 19 20 19H4C2.89543 19 2 18.1046 2 17V7ZM20 14V10H18V14H20ZM20 8H18C16.8954 8 16 8.89543 16 10V14C16 15.1046 16.8954 16 18 16H20V17H13V14.8293C14.1652 14.4175 15 13.3062 15 12C15 10.6938 14.1652 9.58254 13 9.17071V7H20V8ZM4 17V16H6C7.10457 16 8 15.1046 8 14V10C8 8.89543 7.10457 8 6 8H4V7H11V9.17071C9.83481 9.58254 9 10.6938 9 12C9 13.3062 9.83481 14.4175 11 14.8293V17H4ZM6 10H4V14H6V10ZM11 12C11 11.4477 11.4477 11 12 11C12.5523 11 13 11.4477 13 12C13 12.5523 12.5523 13 12 13C11.4477 13 11 12.5523 11 12Z" fill="#131513"/>
</svg>
