<svg width="24" height="24" viewBox="0 0 24 24" fill="none" xmlns="http://www.w3.org/2000/svg">
<path fill-rule="evenodd" clip-rule="evenodd" d="M5 9C5 5.13401 8.13401 2 12 2C15.866 2 19 5.13401 19 9V10.0354C20.6961 10.2781 22 11.7368 22 13.5V13.75C22 15.5449 20.5449 17 18.75 17C18.7224 17 18.695 16.9994 18.6678 16.9981C17.9274 19.118 16.0464 20.5467 14.0149 20.9093C13.5456 21.0808 12.9889 21 12.5 21C11.6716 21 11 20.3284 11 19.5C11 18.6716 11.6716 18 12.5 18H13.5C13.9946 18 14.4333 18.2394 14.7065 18.6086C16.0035 17.9919 17 16.6885 17 15V9C17 6.23858 14.7614 4 12 4C9.23858 4 7 6.23858 7 9V15.25C7 16.2165 6.2165 17 5.25 17C3.45507 17 2 15.5449 2 13.75V13.5C2 11.7368 3.30385 10.2781 5 10.0354V9ZM5 12.0854C4.4174 12.2913 4 12.8469 4 13.5V13.75C4 14.3547 4.42944 14.8592 5 14.975V12.0854ZM19 12.0854V14.975C19.5706 14.8592 20 14.3547 20 13.75V13.5C20 12.8469 19.5826 12.2913 19 12.0854Z" fill="#131513"/>
</svg>
