<svg width="24" height="24" viewBox="0 0 24 24" fill="none" xmlns="http://www.w3.org/2000/svg">
<path fill-rule="evenodd" clip-rule="evenodd" d="M14.0352 2.80881C14.4041 2.54328 14.9244 2.41911 15.4361 2.60633C16.5334 3.00779 17.5399 3.59556 18.4176 4.33073C18.8347 4.6801 18.9873 5.19202 18.942 5.64392C18.8666 6.39677 18.9994 7.12366 19.3611 7.7502C19.6828 8.30738 20.1638 8.74749 20.7514 9.05691L20.9766 9.16678C21.3914 9.35374 21.7593 9.74288 21.8525 10.2803C21.9495 10.8397 22 11.4144 22 12.0001C22 12.5858 21.9495 13.1606 21.8525 13.72C21.7686 14.2037 21.4622 14.5672 21.0994 14.7714L20.9766 14.8335C20.2865 15.1446 19.723 15.6233 19.3611 16.2501C18.9994 16.8766 18.8666 17.6034 18.942 18.3562C18.9872 18.8081 18.8347 19.32 18.4176 19.6694C17.5399 20.4045 16.5334 20.9923 15.4362 21.3937C14.9245 21.581 14.4042 21.4568 14.0353 21.1912C13.4206 20.7488 12.7241 20.5 12 20.5C11.2759 20.5 10.5794 20.7488 9.96474 21.1912C9.59585 21.4568 9.07552 21.581 8.56378 21.3937C7.46655 20.9923 6.46002 20.4045 5.5823 19.6693C5.16523 19.32 5.01269 18.8081 5.05794 18.3562C5.13332 17.6034 5.00045 16.8766 4.63874 16.2501C4.31706 15.6929 3.83615 15.2528 3.24859 14.9434L3.02335 14.8335C2.6086 14.6465 2.24075 14.2574 2.14752 13.72C2.05047 13.1606 2 12.5858 2 12.0001C2 11.4143 2.05047 10.8396 2.14751 10.2801C2.23142 9.79647 2.53777 9.43292 2.90055 9.22874L3.02334 9.16664C3.71344 8.85555 4.27685 8.37689 4.63874 7.75007C5.00046 7.12356 5.13333 6.39671 5.05794 5.64391C5.01268 5.19203 5.16522 4.68015 5.5823 4.3308C6.46004 3.59559 7.4666 3.0078 8.56387 2.60633C9.07558 2.4191 9.59589 2.54328 9.96478 2.80881C10.5794 3.25123 11.2759 3.50003 12 3.50003C12.7241 3.50003 13.4206 3.25123 14.0352 2.80881ZM14.9917 4.57792C14.1261 5.14715 13.1053 5.50003 12 5.50003C10.8947 5.50003 9.87388 5.14715 9.00832 4.57792C8.30727 4.8608 7.65502 5.24042 7.0682 5.70056C7.12793 6.734 6.92299 7.79365 6.37079 8.75007C5.81845 9.70677 5.00295 10.4142 4.07778 10.8792C4.02655 11.245 4 11.6192 4 12.0001C4 12.381 4.02655 12.7551 4.07778 13.121C5.00295 13.586 5.81845 14.2934 6.37079 15.2501C6.92298 16.2065 7.12793 17.2661 7.0682 18.2995C7.655 18.7597 8.30722 19.1393 9.00824 19.4222C9.87381 18.8529 10.8947 18.5 12 18.5C13.1053 18.5 14.1262 18.8529 14.9918 19.4222C15.6927 19.1393 16.3449 18.7597 16.9317 18.2996C16.872 17.2662 17.0769 16.2065 17.6291 15.2501C18.1815 14.2933 18.997 13.5859 19.9222 13.1209C19.9735 12.7551 20 12.381 20 12.0001C20 11.6192 19.9735 11.2451 19.9222 10.8794C18.997 10.4144 18.1815 9.70693 17.6291 8.7502C17.0769 7.79371 16.8719 6.734 16.9317 5.7005C16.3449 5.24039 15.6927 4.86079 14.9917 4.57792ZM12 8C14.2091 8 16 9.79086 16 12C16 14.2091 14.2091 16 12 16C9.79086 16 8 14.2091 8 12C8 9.79086 9.79086 8 12 8ZM12 10C10.8954 10 10 10.8954 10 12C10 13.1046 10.8954 14 12 14C13.1046 14 14 13.1046 14 12C14 10.8954 13.1046 10 12 10Z" fill="#131513"/>
</svg>
