<svg width="24" height="24" viewBox="0 0 24 24" fill="none" xmlns="http://www.w3.org/2000/svg">
<path fill-rule="evenodd" clip-rule="evenodd" d="M4.99998 7.5C4.99998 5.01472 7.01469 3 9.49998 3C11.9853 3 14 5.01472 14 7.5C14 9.98528 11.9853 12 9.49998 12C7.01469 12 4.99998 9.98528 4.99998 7.5ZM9.49998 5C8.11926 5 6.99998 6.11929 6.99998 7.5C6.99998 8.88071 8.11926 10 9.49998 10C10.8807 10 12 8.88071 12 7.5C12 6.11929 10.8807 5 9.49998 5Z" fill="#131513"/>
<path d="M2 17C2 14.7909 3.79086 13 6 13H13C15.2091 13 17 14.7909 17 17V19C17 19.5523 16.5523 20 16 20C15.4477 20 15 19.5523 15 19V17C15 15.8954 14.1046 15 13 15H6C4.89543 15 4 15.8954 4 17V19C4 19.5523 3.55228 20 3 20C2.44772 20 2 19.5523 2 19V17Z" fill="#131513"/>
<path fill-rule="evenodd" clip-rule="evenodd" d="M18 6C16.3431 6 15 7.34315 15 9C15 10.6569 16.3431 12 18 12C19.6569 12 21 10.6569 21 9C21 7.34315 19.6569 6 18 6ZM17 9C17 8.44772 17.4477 8 18 8C18.5523 8 19 8.44772 19 9C19 9.55228 18.5523 10 18 10C17.4477 10 17 9.55228 17 9Z" fill="#131513"/>
<path d="M17.5841 15.0002C17.2362 14.204 16.687 13.5159 16.0008 13.0002H18.9999C20.6568 13.0002 21.9999 14.3434 21.9999 16.0002V18.0002C21.9999 18.5525 21.5522 19.0002 20.9999 19.0002C20.4477 19.0002 19.9999 18.5525 19.9999 18.0002V16.0002C19.9999 15.448 19.5522 15.0002 18.9999 15.0002H17.5841Z" fill="#131513"/>
</svg>
