<svg width="24" height="24" viewBox="0 0 24 24" fill="none" xmlns="http://www.w3.org/2000/svg">
<path d="M8.5 9C6.77609 9 5.12279 9.68482 3.90381 10.9038C2.68482 12.1228 2 13.7761 2 15.5C2 16.3536 2.16813 17.1988 2.49478 17.9874C2.82144 18.7761 3.30023 19.4926 3.90381 20.0962C5.12279 21.3152 6.77609 22 8.5 22C9.35359 22 10.1988 21.8319 10.9874 21.5052C11.7761 21.1786 12.4926 20.6998 13.0962 20.0962C13.6998 19.4926 14.1786 18.7761 14.5052 17.9874C14.8319 17.1988 15 16.3536 15 15.5C15 14.5612 15.6283 13.7386 16.5339 13.4915L20.7468 12.3419C21.4867 12.1401 22 11.4679 22 10.701C22 9.76155 21.2385 9 20.299 9H12C11.4477 9 11 9.44772 11 10C11 10.5523 10.5523 11 10 11C9.44772 11 9 10.5523 9 10V9.5C9 9.22386 8.77614 9 8.5 9Z" fill="#131513"/>
<rect x="9" y="2" width="2" height="5" rx="1" fill="#131513"/>
<rect x="16" y="4" width="2" height="3" rx="1" transform="rotate(45 16 4)" fill="#131513"/>
<rect x="2" y="4" width="2" height="4" rx="1" transform="rotate(-30 2 4)" fill="#131513"/>
</svg>
