<svg width="24" height="24" viewBox="0 0 24 24" fill="none" xmlns="http://www.w3.org/2000/svg">
<path d="M4.61091 11.6109C5.52387 10.698 6.72475 10.1391 8.00013 10.0227C8.01232 11.1168 8.90302 12 10 12C11.1046 12 12 11.1046 12 10H20.299C20.6862 10 21 10.3138 21 10.701C21 11.017 20.7885 11.294 20.4836 11.3772L16.2707 12.5267C14.93 12.8925 14 14.1103 14 15.5C14 16.2223 13.8577 16.9375 13.5813 17.6048C13.3049 18.272 12.8998 18.8784 12.3891 19.3891C11.8784 19.8998 11.272 20.3049 10.6048 20.5813C9.93747 20.8577 9.22227 21 8.5 21C7.04131 21 5.64236 20.4205 4.61091 19.3891C4.10019 18.8784 3.69506 18.272 3.41866 17.6048C3.14226 16.9375 3 16.2223 3 15.5C3 14.0413 3.57946 12.6424 4.61091 11.6109Z" stroke="#131513" stroke-width="2"/>
<rect x="9" y="2" width="2" height="5" rx="1" fill="#131513"/>
<rect x="16" y="4" width="2" height="3" rx="1" transform="rotate(45 16 4)" fill="#131513"/>
<rect x="2" y="4" width="2" height="4" rx="1" transform="rotate(-30 2 4)" fill="#131513"/>
</svg>
